<svg width="38" height="38" viewBox="0 0 38 38" fill="none" xmlns="http://www.w3.org/2000/svg">
    <path d="M19 34C27.182 34 33.8148 27.2843 33.8148 19C33.8148 10.7157 27.182 4 19 4C10.818 4 4.18521 10.7157 4.18521 19C4.18521 27.2843 10.818 34 19 34Z" fill="#00283E"/>
    <path d="M11.7515 23.7788C11.4358 23.7016 11.1726 23.4202 11.1258 23.1103C11.06 22.6717 11.1907 22.2772 11.5245 21.9029C12.2007 21.1462 13.4769 20.7176 14.3953 20.6763C14.2599 20.9641 14.1216 21.2427 13.9843 21.5057L13.9547 21.5618C13.3109 22.7986 12.6099 23.9894 11.7515 23.7788ZM26.2725 23.5581C23.7594 22.76 22.879 21.9618 20.6005 20.7259L20.2152 20.5163C19.4884 20.1227 18.384 19.5627 17.1117 19.1976C17.3863 18.5006 17.6477 17.8009 17.9033 17.114C18.3096 16.0224 18.7292 14.896 19.1985 13.8109C19.7278 15.0854 20.0912 15.9765 20.4145 16.7673C20.6215 17.2739 20.7417 17.5903 20.8685 17.925C21.0745 18.4666 21.208 18.8519 21.8146 20.279C21.8328 20.3213 21.8652 20.3572 21.9072 20.3783L24.0531 21.5002C24.1075 21.5287 24.1742 21.5213 24.221 21.4809C24.2677 21.4404 24.2829 21.3779 24.2591 21.3218C23.6621 19.914 23.2786 18.8721 22.8714 17.7999C22.6234 17.148 22.4098 16.5861 22.2066 16.0859C21.8184 15.136 21.3788 14.0583 20.6844 12.393L20.4975 11.9443C20.467 11.8707 20.3935 11.822 20.3115 11.8201L18.1569 11.7778C18.0778 11.776 17.9996 11.822 17.9652 11.8946L17.7602 12.3369C17.124 13.707 16.5976 15.1241 16.0873 16.4942L16.0806 16.5126C15.7964 17.2758 15.5026 18.0648 15.1917 18.839C14.9752 18.8225 14.7482 18.8142 14.5155 18.8142C13.1736 18.8206 11.2098 19.4101 10.0672 20.6891C9.36806 21.4717 9.07526 22.4004 9.22214 23.3742C9.38048 24.4289 10.2074 25.3136 11.2803 25.5756C11.536 25.6382 11.7782 25.6667 12.009 25.6667C13.9757 25.6667 15.0639 23.5738 15.6791 22.3922L15.7077 22.337C15.9395 21.8928 16.1617 21.4303 16.3887 20.9264C17.2614 21.159 18.2056 21.5544 19.2729 22.1328L19.6582 22.3416C22.0187 23.6216 22.9792 24.463 25.6716 25.3191L25.8843 25.3761C26.1914 25.4395 26.5014 25.4644 26.8104 25.4303C27.7308 25.3292 28.2048 24.8152 28.6578 24.0988C29.2349 23.1885 29.5315 21.88 29.2806 22.2064C28.9774 22.6018 28.6388 22.9613 28.2716 23.3025C27.809 23.7319 27.1652 23.7632 26.4985 23.6271L26.2744 23.5554L26.2725 23.5581Z" fill="#DFDFD7"/>
</svg>
